<svg width="24" height="24" viewBox="0 0 24 24" fill="none" xmlns="http://www.w3.org/2000/svg">
<path d="M12.75 4.50011C9.06563 4.50011 5.94844 6.91417 4.88906 10.2423C6.46406 9.44542 8.24063 9.00011 10.125 9.00011H14.25C14.6625 9.00011 15 9.33761 15 9.75011C15 10.1626 14.6625 10.5001 14.25 10.5001H13.5H10.125C9.34688 10.5001 8.59219 10.5892 7.86094 10.7532C6.64687 11.0298 5.52188 11.522 4.51406 12.1923C1.79531 14.0064 0 17.1048 0 20.6251V21.3751C0 21.9986 0.501562 22.5001 1.125 22.5001C1.74844 22.5001 2.25 21.9986 2.25 21.3751V20.6251C2.25 18.3423 3.22031 16.2892 4.77188 14.8501C5.7 18.3892 8.92031 21.0001 12.75 21.0001H12.7969C18.9891 20.9673 24 14.8642 24 7.34074C24 5.34386 23.6484 3.44542 23.0109 1.73449C22.8891 1.41105 22.4156 1.42511 22.2516 1.7298C21.3703 3.3798 19.6266 4.50011 17.625 4.50011H12.75Z" fill="black"/>
</svg>
