<svg width="30" height="28" viewBox="0 0 30 28" fill="none" xmlns="http://www.w3.org/2000/svg">
<g clip-path="url(#clip0_3029_10081)">
<path d="M29.9893 13.9727C29.9893 14.957 29.208 15.7281 28.3226 15.7281H26.6559L26.6924 24.4891C26.7028 26.4305 25.208 28.0055 23.3591 28.0055H6.67155C4.83301 28.0055 3.33822 26.4359 3.33822 24.5055V15.7336H1.67155C0.734049 15.7336 0.00488281 14.968 0.00488281 13.9781C0.00488281 13.4859 0.161133 13.0484 0.525716 12.6656L13.8747 0.4375C14.2393 0.0546875 14.6559 0 15.0205 0C15.3851 0 15.8018 0.109375 16.1143 0.382812L29.4163 12.6602C29.833 13.043 30.0413 13.4805 29.9893 13.9727ZM18.333 12.25C18.333 11.3217 17.9818 10.4315 17.3567 9.77513C16.7316 9.11875 15.8837 8.75 14.9997 8.75C14.1156 8.75 13.2678 9.11875 12.6427 9.77513C12.0175 10.4315 11.6663 11.3217 11.6663 12.25C11.6663 13.1783 12.0175 14.0685 12.6427 14.7249C13.2678 15.3813 14.1156 15.75 14.9997 15.75C15.8837 15.75 16.7316 15.3813 17.3567 14.7249C17.9818 14.0685 18.333 13.1783 18.333 12.25ZM13.333 17.5C11.0309 17.5 9.16634 19.4578 9.16634 21.875C9.16634 22.3563 9.54134 22.75 9.99967 22.75H19.9997C20.458 22.75 20.833 22.3563 20.833 21.875C20.833 19.4578 18.9684 17.5 16.6663 17.5H13.333Z" fill="black"/>
</g>
<defs>
<clipPath id="clip0_3029_10081">
<rect width="30" height="28" fill="white"/>
</clipPath>
</defs>
</svg>
