<svg width="33" height="30" viewBox="0 0 33 30" fill="none" xmlns="http://www.w3.org/2000/svg">
<path d="M2.79486 11.8887C6.35267 8.00977 11.1789 5.625 16.5002 5.625C21.8214 5.625 26.6477 8.00977 30.2055 11.8887C30.8655 12.6035 31.907 12.5801 32.5361 11.8359C33.1652 11.0918 33.1445 9.90234 32.4897 9.1875C28.3441 4.6582 22.7083 1.875 16.5002 1.875C10.292 1.875 4.65627 4.6582 0.505484 9.18164C-0.149359 9.90234 -0.169984 11.0859 0.459078 11.8359C1.08814 12.5859 2.13486 12.6094 2.7897 11.8887H2.79486ZM16.5002 15C19.4289 15 22.0999 16.2363 24.1417 18.2812C24.8275 18.9668 25.8691 18.8906 26.4724 18.1172C27.0756 17.3438 27.0086 16.1543 26.328 15.4688C23.7086 12.8438 20.2642 11.25 16.5002 11.25C12.7361 11.25 9.29173 12.8438 6.67752 15.4688C5.99173 16.1543 5.92986 17.3379 6.53314 18.1172C7.13642 18.8965 8.17798 18.9668 8.86377 18.2812C10.9005 16.2363 13.5714 15 16.5053 15H16.5002ZM19.8002 24.375C19.8002 23.3804 19.4525 22.4266 18.8336 21.7234C18.2148 21.0201 17.3754 20.625 16.5002 20.625C15.625 20.625 14.7856 21.0201 14.1667 21.7234C13.5478 22.4266 13.2002 23.3804 13.2002 24.375C13.2002 25.3696 13.5478 26.3234 14.1667 27.0266C14.7856 27.7299 15.625 28.125 16.5002 28.125C17.3754 28.125 18.2148 27.7299 18.8336 27.0266C19.4525 26.3234 19.8002 25.3696 19.8002 24.375Z" fill="black"/>
</svg>
