<svg width="29" height="28" viewBox="0 0 29 28" fill="none" xmlns="http://www.w3.org/2000/svg">
<path d="M14.3273 4.68089C9.26968 4.76134 5.00866 8.79225 4.82855 13.665C4.72218 16.4961 5.93339 19.1838 8.15275 21.0412C9.10891 21.8423 9.6565 23.0736 9.6565 24.502C9.6565 26.4305 11.2835 28 13.2829 28H15.7005C17.6999 28 19.3269 26.4305 19.3269 24.502V24.0647C19.3269 22.9383 19.8769 21.8516 20.8766 21.0028C22.9654 19.2327 24.1621 16.6838 24.1621 14.0078C24.1621 11.4881 23.1358 9.12573 21.2731 7.35806C19.4103 5.59038 16.9419 4.62375 14.3273 4.68089ZM16.9093 24.502C16.9093 25.1456 16.3678 25.668 15.7005 25.668H13.2829C12.6156 25.668 12.0741 25.1456 12.0741 24.4215C12.0741 24.053 12.0366 23.6916 11.981 23.3359H16.9589C16.9286 23.5761 16.9093 23.8198 16.9093 24.0647V24.502ZM19.281 19.2514C18.6633 19.7749 18.1652 20.3673 17.7821 21.0039H15.7005V16.1253C17.1039 15.6426 18.1181 14.36 18.1181 12.8418C18.1181 12.197 17.5778 11.6758 16.9093 11.6758C16.2408 11.6758 15.7005 12.197 15.7005 12.8418C15.7005 13.4866 15.159 14.0078 14.4917 14.0078C13.8244 14.0078 13.2829 13.4855 13.2829 12.8418C13.2829 12.1982 12.7426 11.6758 12.0741 11.6758C11.4056 11.6758 10.8653 12.197 10.8653 12.8418C10.8653 14.36 11.8795 15.6426 13.2829 16.1253V21.0039H11.1723C10.7976 20.3533 10.3177 19.7679 9.73628 19.2805C8.07297 17.8872 7.16395 15.8711 7.24373 13.749C7.37912 10.0947 10.5752 7.07238 14.3684 7.01292C14.4095 7.01292 14.4494 7.01292 14.4917 7.01292C16.4089 7.01292 18.2112 7.72302 19.5783 9.02196C20.9757 10.3477 21.7457 12.1189 21.7457 14.009C21.7457 16.0145 20.8476 17.9245 19.2822 19.2526L19.281 19.2514ZM20.2758 2.90038L21.7687 0.556697C22.1168 0.00633807 22.8614 -0.165066 23.4308 0.174244C24.0001 0.511222 24.1778 1.22832 23.8273 1.77751L22.3344 4.1212C22.1071 4.48033 21.7094 4.67739 21.3033 4.67739C21.0869 4.67739 20.8693 4.62142 20.6723 4.50482C20.1029 4.16784 19.9253 3.44958 20.2758 2.90038ZM28.2877 7.73701L25.9511 8.75377C25.7904 8.8249 25.6211 8.85755 25.4555 8.85755C24.9938 8.85755 24.555 8.60219 24.3531 8.17077C24.0775 7.58426 24.3483 6.89282 24.9575 6.6293L27.2941 5.61253C27.9058 5.34552 28.6189 5.60904 28.8921 6.19554C29.1677 6.78205 28.897 7.47349 28.2877 7.73701ZM5.0558 1.77635C4.70646 1.22715 4.88536 0.50889 5.45471 0.173078C6.02647 -0.162734 6.76867 0.00983614 7.11681 0.557863L8.60605 2.90272C8.95539 3.45191 8.77649 4.17017 8.20715 4.50599C8.01011 4.62259 7.79132 4.67739 7.57736 4.67739C7.17 4.67739 6.77351 4.47917 6.54505 4.12004L5.0558 1.77518V1.77635ZM4.47195 8.24889C4.26525 8.66749 3.8325 8.91119 3.38162 8.91119C3.20634 8.91119 3.02865 8.87504 2.86062 8.79575L0.687201 7.79181C0.0852183 7.5143 -0.169839 6.81819 0.119065 6.23752C0.40555 5.65568 1.13083 5.40732 1.7304 5.68949L3.90382 6.69343C4.5058 6.97094 4.76086 7.66822 4.47195 8.24889Z" fill="black"/>
</svg>
