<svg width="24" height="20" viewBox="0 0 24 20" fill="none" xmlns="http://www.w3.org/2000/svg">
<g clip-path="url(#clip0_2534_5940)">
<path d="M12.0001 1.19995C11.6963 1.19995 11.3963 1.25245 11.1113 1.3537L0.592589 5.15245C0.236339 5.2837 8.89288e-05 5.6212 8.89288e-05 5.99995C8.89288e-05 6.3787 0.236339 6.7162 0.592589 6.84745L2.76384 7.6312C2.14884 8.5987 1.80009 9.74245 1.80009 10.9462V12C1.80009 13.065 1.39509 14.1637 0.963839 15.03C0.720089 15.5175 0.442589 15.9975 0.120089 16.44C8.89301e-05 16.6012 -0.0336611 16.8112 0.0338389 17.0025C0.101339 17.1937 0.258839 17.3362 0.453839 17.385L2.85384 17.985C3.01134 18.0262 3.18009 17.9962 3.31884 17.91C3.45759 17.8237 3.55509 17.6812 3.58509 17.52C3.90759 15.915 3.74634 14.475 3.50634 13.4437C3.38634 12.9112 3.22509 12.3675 3.00009 11.8687V10.9462C3.00009 9.8137 3.38259 8.74495 4.04634 7.88995C4.53009 7.3087 5.15634 6.83995 5.89134 6.5512L11.7788 4.23745C12.0863 4.11745 12.4351 4.26745 12.5551 4.57495C12.6751 4.88245 12.5251 5.2312 12.2176 5.3512L6.33009 7.66495C5.86509 7.8487 5.45634 8.12995 5.12259 8.47495L11.1076 10.635C11.3926 10.7362 11.6926 10.7887 11.9963 10.7887C12.3001 10.7887 12.6001 10.7362 12.8851 10.635L23.4076 6.84745C23.7638 6.71995 24.0001 6.3787 24.0001 5.99995C24.0001 5.6212 23.7638 5.2837 23.4076 5.15245L12.8888 1.3537C12.6038 1.25245 12.3038 1.19995 12.0001 1.19995ZM4.80009 15.3C4.80009 16.6237 8.02509 18 12.0001 18C15.9751 18 19.2001 16.6237 19.2001 15.3L18.6263 9.84745L13.2938 11.775C12.8776 11.925 12.4388 12 12.0001 12C11.5613 12 11.1188 11.925 10.7063 11.775L5.37384 9.84745L4.80009 15.3Z" fill="black"/>
</g>
<defs>
<clipPath id="clip0_2534_5940">
<rect width="24" height="19.2" fill="white"/>
</clipPath>
</defs>
</svg>
