<svg width="22" height="29" viewBox="0 0 22 29" fill="none" xmlns="http://www.w3.org/2000/svg">
<g clip-path="url(#clip0_3018_8975)">
<path d="M1.83354 0C1.32364 0 0.836662 0.20957 0.492912 0.577734C0.149163 0.945898 -0.0341708 1.43867 0.00593336 1.94277L1.65593 24.7916C1.82781 27.1648 3.82156 29 6.22781 29H15.7726C18.1788 29 20.1726 27.1648 20.3445 24.7916L21.9945 1.94277C22.0288 1.43867 21.857 0.945898 21.5075 0.577734C21.158 0.20957 20.6768 0 20.1669 0H1.83354ZM4.75541 16.8506L3.80437 3.625H18.2018L17.245 16.8506L16.5002 17.2188C15.3486 17.7908 13.9851 17.7908 12.8335 17.2188C11.682 16.6467 10.3184 16.6467 9.16687 17.2188C8.01531 17.7908 6.65177 17.7908 5.5002 17.2188L4.75541 16.8506ZM14.6669 11.1016C14.6669 9.74219 12.7361 7.13105 11.6762 5.80566C11.3268 5.36953 10.6736 5.36953 10.3242 5.80566C9.26427 7.13105 7.33354 9.74219 7.33354 11.1016C7.33354 12.9764 8.97781 14.5 11.0002 14.5C13.0226 14.5 14.6669 12.9764 14.6669 11.1016Z" fill="black"/>
</g>
<defs>
<clipPath id="clip0_3018_8975">
<rect width="22" height="29" fill="white"/>
</clipPath>
</defs>
</svg>
