<svg width="15" height="19" viewBox="0 0 15 19" fill="none" xmlns="http://www.w3.org/2000/svg">
<path d="M8.42578 18.5731C10.4297 16.1845 15 10.3953 15 7.14349C15 3.19969 11.6406 0 7.5 0C3.35938 0 0 3.19969 0 7.14349C0 10.3953 4.57031 16.1845 6.57422 18.5731C7.05469 19.1423 7.94531 19.1423 8.42578 18.5731ZM7.5 4.76232C8.16304 4.76232 8.79893 5.0132 9.26777 5.45975C9.73661 5.90631 10 6.51196 10 7.14349C10 7.77501 9.73661 8.38067 9.26777 8.82722C8.79893 9.27378 8.16304 9.52465 7.5 9.52465C6.83696 9.52465 6.20107 9.27378 5.73223 8.82722C5.26339 8.38067 5 7.77501 5 7.14349C5 6.51196 5.26339 5.90631 5.73223 5.45975C6.20107 5.0132 6.83696 4.76232 7.5 4.76232Z" fill="black"/>
</svg>
