<svg width="20" height="20" viewBox="0 0 20 20" fill="none" xmlns="http://www.w3.org/2000/svg">
<g clip-path="url(#clip0_3029_10012)">
<path d="M20.6702 2.16009C21.1297 1.67188 21.1297 0.879025 20.6702 0.390815C20.2106 -0.0973942 19.4642 -0.0973942 19.0047 0.390815L11.9455 7.88972L10.6697 6.53445C10.5153 6.37041 10.3021 6.27667 10.0815 6.27667C9.62189 6.27667 9.25055 6.67115 9.25055 7.15936V8.29591L13.2323 12.5258H14.3022C14.7618 12.5258 15.1332 12.1313 15.1332 11.6431C15.1332 11.4087 15.0449 11.1822 14.8905 11.0182L13.6147 9.66289L20.6738 2.16399L20.6702 2.16009ZM12.3794 13.8303L8.02256 9.20202C6.45264 9.05751 4.89007 9.65899 3.76502 10.8541L3.47089 11.1666C2.651 12.0375 2.19142 13.2171 2.19142 14.4474C2.19142 14.7129 2.45246 14.8848 2.67674 14.7676L4.5555 13.7717C4.73933 13.674 4.90478 13.9318 4.75403 14.0802L0.106773 18.5171C-0.0623521 18.6811 -0.161621 18.9154 -0.161621 19.1615C-0.161621 19.638 0.202365 20.0247 0.650914 20.0247H7.02251C8.44905 20.0247 9.81308 19.4232 10.8242 18.353C11.9492 17.1579 12.5117 15.498 12.3794 13.8303Z" fill="black"/>
</g>
<defs>
<clipPath id="clip0_3029_10012">
<rect width="20" height="20" fill="white"/>
</clipPath>
</defs>
</svg>
