<svg width="24" height="20" viewBox="0 0 24 20" fill="none" xmlns="http://www.w3.org/2000/svg">
<g clip-path="url(#clip0_2534_5946)">
<path d="M10.8 1.8C10.8 0.80625 11.6063 0 12.6 0H16.2C17.1938 0 18 0.80625 18 1.8V7.2H19.5V4.5C19.5 4.00125 19.9013 3.6 20.4 3.6C20.8988 3.6 21.3 4.00125 21.3 4.5V7.2H22.2C23.1938 7.2 24 8.00625 24 9V17.4C24 18.3938 23.1938 19.2 22.2 19.2H16.2H12.6C11.6063 19.2 10.8 18.3938 10.8 17.4V1.8ZM13.2 3V4.2C13.2 4.53 13.47 4.8 13.8 4.8H15C15.33 4.8 15.6 4.53 15.6 4.2V3C15.6 2.67 15.33 2.4 15 2.4H13.8C13.47 2.4 13.2 2.67 13.2 3ZM13.8 6C13.47 6 13.2 6.27 13.2 6.6V7.8C13.2 8.13 13.47 8.4 13.8 8.4H15C15.33 8.4 15.6 8.13 15.6 7.8V6.6C15.6 6.27 15.33 6 15 6H13.8ZM13.2 10.2V11.4C13.2 11.73 13.47 12 13.8 12H15C15.33 12 15.6 11.73 15.6 11.4V10.2C15.6 9.87 15.33 9.6 15 9.6H13.8C13.47 9.6 13.2 9.87 13.2 10.2ZM19.8 9.6C19.47 9.6 19.2 9.87 19.2 10.2V11.4C19.2 11.73 19.47 12 19.8 12H21C21.33 12 21.6 11.73 21.6 11.4V10.2C21.6 9.87 21.33 9.6 21 9.6H19.8ZM19.2 13.8V15C19.2 15.33 19.47 15.6 19.8 15.6H21C21.33 15.6 21.6 15.33 21.6 15V13.8C21.6 13.47 21.33 13.2 21 13.2H19.8C19.47 13.2 19.2 13.47 19.2 13.8ZM8.4 6C8.4 6.225 8.3625 6.4125 8.325 6.6C9.075 7.125 9.6 8.025 9.6 9C9.6 10.6875 8.25 12 6.6 12H6V18C6 18.675 5.4375 19.2 4.8 19.2C4.125 19.2 3.6 18.675 3.6 18V12H3C1.3125 12 0 10.6875 0 9C0 8.025 0.4875 7.125 1.2375 6.6C1.2 6.4125 1.2 6.225 1.2 6C1.2 4.0125 2.775 2.4 4.8 2.4C6.7875 2.4 8.4 4.0125 8.4 6Z" fill="black"/>
</g>
<defs>
<clipPath id="clip0_2534_5946">
<rect width="24" height="19.2" fill="white"/>
</clipPath>
</defs>
</svg>
