<svg width="18" height="24" viewBox="0 0 18 24" fill="none" xmlns="http://www.w3.org/2000/svg">
<g clip-path="url(#clip0_2549_5261)">
<path d="M15.5808 0C16.8097 0 17.8066 1.00781 17.8066 2.25V21.75C17.8066 22.9922 16.8097 24 15.5808 24H11.1292V20.25C11.1292 19.0078 10.1322 18 8.90341 18C7.67458 18 6.67761 19.0078 6.67761 20.25V24H2.226C0.997164 24 0.000188828 22.9922 0.000188828 21.75V2.25C0.000188828 1.00781 0.997164 0 2.226 0H15.5808ZM14.8389 11.25C14.8389 10.8375 14.505 10.5 14.097 10.5H12.6131C12.205 10.5 11.8712 10.8375 11.8712 11.25V12.75C11.8712 13.1625 12.205 13.5 12.6131 13.5H14.097C14.505 13.5 14.8389 13.1625 14.8389 12.75V11.25ZM9.64535 10.5H8.16148C7.75342 10.5 7.41954 10.8375 7.41954 11.25V12.75C7.41954 13.1625 7.75342 13.5 8.16148 13.5H9.64535C10.0534 13.5 10.3873 13.1625 10.3873 12.75V11.25C10.3873 10.8375 10.0534 10.5 9.64535 10.5ZM5.93567 11.25C5.93567 10.8375 5.6018 10.5 5.19374 10.5H3.70987C3.3018 10.5 2.96793 10.8375 2.96793 11.25V12.75C2.96793 13.1625 3.3018 13.5 3.70987 13.5H5.19374C5.6018 13.5 5.93567 13.1625 5.93567 12.75V11.25ZM14.097 4.5H12.6131C12.205 4.5 11.8712 4.8375 11.8712 5.25V6.75C11.8712 7.1625 12.205 7.5 12.6131 7.5H14.097C14.505 7.5 14.8389 7.1625 14.8389 6.75V5.25C14.8389 4.8375 14.505 4.5 14.097 4.5ZM10.3873 5.25C10.3873 4.8375 10.0534 4.5 9.64535 4.5H8.16148C7.75342 4.5 7.41954 4.8375 7.41954 5.25V6.75C7.41954 7.1625 7.75342 7.5 8.16148 7.5H9.64535C10.0534 7.5 10.3873 7.1625 10.3873 6.75V5.25ZM5.19374 4.5H3.70987C3.3018 4.5 2.96793 4.8375 2.96793 5.25V6.75C2.96793 7.1625 3.3018 7.5 3.70987 7.5H5.19374C5.6018 7.5 5.93567 7.1625 5.93567 6.75V5.25C5.93567 4.8375 5.6018 4.5 5.19374 4.5Z" fill="black"/>
</g>
<defs>
<clipPath id="clip0_2549_5261">
<rect width="17.8065" height="24" fill="white" transform="matrix(-1 0 0 1 17.8066 0)"/>
</clipPath>
</defs>
</svg>
