<svg width="35" height="21" viewBox="0 0 35 21" fill="none" xmlns="http://www.w3.org/2000/svg">
<path d="M1.75 1.3125C0.782031 1.3125 0 1.89902 0 2.625V18.375C0 19.101 0.782031 19.6875 1.75 19.6875C2.71797 19.6875 3.5 19.101 3.5 18.375V10.9225L8.15937 3.9375H3.5V2.625C3.5 1.89902 2.71797 1.3125 1.75 1.3125ZM22.1594 3.9375H18.0961L17.8008 4.37637L12.8406 11.8125H16.9039L17.1992 11.3736L22.1594 3.9375ZM19.8406 11.8125H23.9039L24.1992 11.3736L29.1594 3.9375H25.0961L24.8008 4.37637L19.8406 11.8125ZM11.0906 3.9375L10.7953 4.37637L5.84063 11.8125H9.90391L10.1992 11.3736L15.1594 3.9375H11.0961H11.0906ZM26.8406 11.8125H31.5V18.375C31.5 19.101 32.282 19.6875 33.25 19.6875C34.218 19.6875 35 19.101 35 18.375V2.625C35 1.89902 34.218 1.3125 33.25 1.3125C32.282 1.3125 31.5 1.89902 31.5 2.625V4.82754L26.8406 11.8125Z" fill="black"/>
</svg>
