<svg width="38" height="30" viewBox="0 0 38 30" fill="none" xmlns="http://www.w3.org/2000/svg">
<path d="M18.386 2.14282C19.27 2.14282 20.0855 2.57331 20.5337 3.2793L33.9802 24.4018C34.4347 25.1135 34.4347 25.9917 33.9927 26.7034C33.5507 27.4151 32.7227 27.8571 31.8325 27.8571H4.93946C4.04925 27.8571 3.22129 27.4151 2.7793 26.7034C2.33731 25.9917 2.34353 25.1077 2.79175 24.4018L16.2383 3.2793C16.6865 2.57331 17.502 2.14282 18.386 2.14282ZM18.386 9.48976C17.558 9.48976 16.8919 10.1039 16.8919 10.8673V17.2959C16.8919 18.0593 17.558 18.6734 18.386 18.6734C19.2139 18.6734 19.88 18.0593 19.88 17.2959V10.8673C19.88 10.1039 19.2139 9.48976 18.386 9.48976ZM20.3781 22.3469C20.3781 21.8598 20.1682 21.3926 19.7946 21.0481C19.421 20.7037 18.9143 20.5102 18.386 20.5102C17.8577 20.5102 17.351 20.7037 16.9774 21.0481C16.6038 21.3926 16.3939 21.8598 16.3939 22.3469C16.3939 22.834 16.6038 23.3012 16.9774 23.6457C17.351 23.9901 17.8577 24.1836 18.386 24.1836C18.9143 24.1836 19.421 23.9901 19.7946 23.6457C20.1682 23.3012 20.3781 22.834 20.3781 22.3469Z" fill="black"/>
</svg>
