<svg width="24" height="20" viewBox="0 0 24 20" fill="none" xmlns="http://www.w3.org/2000/svg">
<path d="M7.2 2.3999C3.225 2.3999 0 5.6249 0 9.5999C0 13.5749 3.225 16.7999 7.2 16.7999H16.8C20.775 16.7999 24 13.5749 24 9.5999C24 5.6249 20.775 2.3999 16.8 2.3999H7.2ZM18.6 6.2999C18.9978 6.2999 19.3794 6.45794 19.6607 6.73924C19.942 7.02055 20.1 7.40208 20.1 7.7999C20.1 8.19773 19.942 8.57926 19.6607 8.86056C19.3794 9.14187 18.9978 9.2999 18.6 9.2999C18.2022 9.2999 17.8206 9.14187 17.5393 8.86056C17.258 8.57926 17.1 8.19773 17.1 7.7999C17.1 7.40208 17.258 7.02055 17.5393 6.73924C17.8206 6.45794 18.2022 6.2999 18.6 6.2999ZM14.7 11.3999C14.7 11.0021 14.858 10.6205 15.1393 10.3392C15.4206 10.0579 15.8022 9.8999 16.2 9.8999C16.5978 9.8999 16.9794 10.0579 17.2607 10.3392C17.542 10.6205 17.7 11.0021 17.7 11.3999C17.7 11.7977 17.542 12.1793 17.2607 12.4606C16.9794 12.7419 16.5978 12.8999 16.2 12.8999C15.8022 12.8999 15.4206 12.7419 15.1393 12.4606C14.858 12.1793 14.7 11.7977 14.7 11.3999ZM6.3 7.4999C6.3 7.00115 6.70125 6.5999 7.2 6.5999C7.69875 6.5999 8.1 7.00115 8.1 7.4999V8.6999H9.3C9.79875 8.6999 10.2 9.10115 10.2 9.5999C10.2 10.0987 9.79875 10.4999 9.3 10.4999H8.1V11.6999C8.1 12.1987 7.69875 12.5999 7.2 12.5999C6.70125 12.5999 6.3 12.1987 6.3 11.6999V10.4999H5.1C4.60125 10.4999 4.2 10.0987 4.2 9.5999C4.2 9.10115 4.60125 8.6999 5.1 8.6999H6.3V7.4999Z" fill="black"/>
</svg>
